<svg version="1.1" preserveAspectRatio="none" xmlns="http://www.w3.org/2000/svg" width="500" height="500" viewBox="0 0 500 500"><rect width="100%" height="100%" fill="#F5F5F5" fill-opacity="1"/><svg viewBox="198.8905 196.9487 528.9958 122.4" width="333" height="77.05013915044316" x="83.5px" y="211.4749px" xmlns="http://www.w3.org/2000/svg" xmlns:xlink="http://www.w3.org/1999/xlink" preserveAspectRatio="none"><defs></defs><style>.companyName {fill:#08376B;fill-opacity:1;}.icon1 {fill:#35C0ED;fill-opacity:1;}.icon2 {fill:#9AEBA6;fill-opacity:1;}.icon3 {fill:#2F90B0;fill-opacity:1;}.icon3-str {stroke:#2F90B0;stroke-opacity:1;}.shapeStroke-str {stroke:#08376B;stroke-opacity:1;}.text {fill:#08376B;fill-opacity:1;}</style><g opacity="1" transform="rotate(0 198.8905 211.9487)">
<svg width="92.4" height="92.4" x="198.8905" y="211.9487" version="1.1" preserveAspectRatio="none" viewBox="8 8 184 184">
  <g transform="matrix(1 0 0 1 0 0)"><g><path d="M100 8C49.271 8 8 49.271 8 100s41.271 92 92 92 92-41.271 92-92-41.271-92-92-92zm0 178.816c-47.87 0-86.815-38.945-86.815-86.816S52.13 13.184 100 13.184 186.815 52.129 186.815 100 147.87 186.816 100 186.816z" data-color="1" class="icon1"></path><path d="M102.412 95.369h-4.888v43.566H61.122l37.323 30.875 1.56 1.286 38.793-32.16h-36.386V95.369zm22.83 48.456l-25.244 20.927L74.7 143.825h50.542z" data-color="1" class="icon1"></path><path d="M60.696 128.671h31.916v-5.079H65.774V48.274h69.081v75.318h-27.53v5.079h32.608V43.195H60.696v85.476z" data-color="1" class="icon1"></path></g></g>
</svg>
</g><g opacity="1" transform="rotate(0 329.2905 283.9487)">
<svg width="319.0556" height="20.4" x="329.2905" y="283.9487" version="1.1" preserveAspectRatio="none" viewBox="3.52 -30.88 489.32 31.279999999999998">
  <g transform="matrix(1 0 0 1 0 0)" class="text"><path id="id-6izo4zJp22" d="M15.80 0.40Q10 0.40 6.76-2.86Q3.52-6.12 3.52-12.20L3.52-12.20L3.52-28L8.72-28L8.72-12.40Q8.72-4.16 15.84-4.16L15.84-4.16Q22.92-4.16 22.92-12.40L22.92-12.40L22.92-28L28.04-28L28.04-12.20Q28.04-6.12 24.82-2.86Q21.60 0.40 15.80 0.40L15.80 0.40Z M48.16-21.60Q52.20-21.60 54.64-19.24Q57.08-16.88 57.08-12.24L57.08-12.24L57.08 0L52.08 0L52.08-11.60Q52.08-14.40 50.76-15.82Q49.44-17.24 47.00-17.24L47.00-17.24Q44.24-17.24 42.64-15.58Q41.04-13.92 41.04-10.80L41.04-10.80L41.04 0L36.04 0L36.04-21.36L40.80-21.36L40.80-18.60Q42.04-20.08 43.92-20.84Q45.80-21.60 48.16-21.60L48.16-21.60Z M64.64 0L64.64-29.68L69.64-29.68L69.64 0L64.64 0Z M97.48-10.56Q97.48-10.04 97.40-9.08L97.40-9.08L80.64-9.08Q81.08-6.72 82.94-5.34Q84.80-3.96 87.56-3.96L87.56-3.96Q91.08-3.96 93.36-6.28L93.36-6.28L96.04-3.20Q94.60-1.48 92.40-0.60Q90.20 0.28 87.44 0.28L87.44 0.28Q83.92 0.28 81.24-1.12Q78.56-2.52 77.10-5.02Q75.64-7.52 75.64-10.68L75.64-10.68Q75.64-13.80 77.06-16.30Q78.48-18.80 81.00-20.20Q83.52-21.60 86.68-21.60L86.68-21.60Q89.80-21.60 92.26-20.22Q94.72-18.84 96.10-16.34Q97.48-13.84 97.48-10.56L97.48-10.56ZM86.68-17.60Q84.28-17.60 82.62-16.18Q80.96-14.76 80.60-12.40L80.60-12.40L92.72-12.40Q92.40-14.72 90.76-16.16Q89.12-17.60 86.68-17.60L86.68-17.60Z M111.04-21.60Q115.76-21.60 118.26-19.34Q120.76-17.08 120.76-12.52L120.76-12.52L120.76 0L116.04 0L116.04-2.60Q115.12-1.20 113.42-0.46Q111.72 0.28 109.32 0.28L109.32 0.28Q106.92 0.28 105.12-0.54Q103.32-1.36 102.34-2.82Q101.36-4.28 101.36-6.12L101.36-6.12Q101.36-9 103.50-10.74Q105.64-12.48 110.24-12.48L110.24-12.48L115.76-12.48L115.76-12.80Q115.76-15.04 114.42-16.24Q113.08-17.44 110.44-17.44L110.44-17.44Q108.64-17.44 106.90-16.88Q105.16-16.32 103.96-15.32L103.96-15.32L102.00-18.96Q103.68-20.24 106.04-20.92Q108.40-21.60 111.04-21.60L111.04-21.60ZM110.36-3.36Q112.24-3.36 113.70-4.22Q115.16-5.08 115.76-6.68L115.76-6.68L115.76-9.16L110.60-9.16Q106.28-9.16 106.28-6.32L106.28-6.32Q106.28-4.96 107.36-4.16Q108.44-3.36 110.36-3.36L110.36-3.36Z M134.96 0.28Q132.36 0.28 129.88-0.40Q127.40-1.08 125.92-2.12L125.92-2.12L127.84-5.92Q129.28-4.96 131.30-4.38Q133.32-3.80 135.28-3.80L135.28-3.80Q139.76-3.80 139.76-6.16L139.76-6.16Q139.76-7.28 138.62-7.72Q137.48-8.16 134.96-8.56L134.96-8.56Q132.32-8.96 130.66-9.48Q129.00-10 127.78-11.30Q126.56-12.60 126.56-14.92L126.56-14.92Q126.56-17.96 129.10-19.78Q131.64-21.60 135.96-21.60L135.96-21.60Q138.16-21.60 140.36-21.10Q142.56-20.60 143.96-19.76L143.96-19.76L142.04-15.96Q139.32-17.56 135.92-17.56L135.92-17.56Q133.72-17.56 132.58-16.90Q131.44-16.24 131.44-15.16L131.44-15.16Q131.44-13.96 132.66-13.46Q133.88-12.96 136.44-12.52L136.44-12.52Q139.00-12.12 140.64-11.60Q142.28-11.08 143.46-9.84Q144.64-8.60 144.64-6.32L144.64-6.32Q144.64-3.32 142.04-1.52Q139.44 0.28 134.96 0.28L134.96 0.28Z M162.28-21.60Q166.32-21.60 168.76-19.24Q171.20-16.88 171.20-12.24L171.20-12.24L171.20 0L166.20 0L166.20-11.60Q166.20-14.40 164.88-15.82Q163.56-17.24 161.12-17.24L161.12-17.24Q158.36-17.24 156.76-15.58Q155.16-13.92 155.16-10.80L155.16-10.80L155.16 0L150.16 0L150.16-29.68L155.16-29.68L155.16-18.88Q156.40-20.20 158.22-20.90Q160.04-21.60 162.28-21.60L162.28-21.60Z M202.44-4.72L203.84-1.16Q202.96-0.44 201.70-0.08Q200.44 0.28 199.04 0.28L199.04 0.28Q195.52 0.28 193.60-1.56Q191.68-3.40 191.68-6.92L191.68-6.92L191.68-17.20L188.16-17.20L188.16-21.20L191.68-21.20L191.68-26.08L196.68-26.08L196.68-21.20L202.40-21.20L202.40-17.20L196.68-17.20L196.68-7.04Q196.68-5.48 197.44-4.66Q198.20-3.84 199.64-3.84L199.64-3.84Q201.32-3.84 202.44-4.72L202.44-4.72Z M221.28-21.60Q225.32-21.60 227.76-19.24Q230.20-16.88 230.20-12.24L230.20-12.24L230.20 0L225.20 0L225.20-11.60Q225.20-14.40 223.88-15.82Q222.56-17.24 220.12-17.24L220.12-17.24Q217.36-17.24 215.76-15.58Q214.16-13.92 214.16-10.80L214.16-10.80L214.16 0L209.16 0L209.16-29.68L214.16-29.68L214.16-18.88Q215.40-20.20 217.22-20.90Q219.04-21.60 221.28-21.60L221.28-21.60Z M258.04-10.56Q258.04-10.04 257.96-9.08L257.96-9.08L241.20-9.08Q241.64-6.72 243.50-5.34Q245.36-3.96 248.12-3.96L248.12-3.96Q251.64-3.96 253.92-6.28L253.92-6.28L256.60-3.20Q255.16-1.48 252.96-0.60Q250.76 0.28 248.00 0.28L248.00 0.28Q244.48 0.28 241.80-1.12Q239.12-2.52 237.66-5.02Q236.20-7.52 236.20-10.68L236.20-10.68Q236.20-13.80 237.62-16.30Q239.04-18.80 241.56-20.20Q244.08-21.60 247.24-21.60L247.24-21.60Q250.36-21.60 252.82-20.22Q255.28-18.84 256.66-16.34Q258.04-13.84 258.04-10.56L258.04-10.56ZM247.24-17.60Q244.84-17.60 243.18-16.18Q241.52-14.76 241.16-12.40L241.16-12.40L253.28-12.40Q252.96-14.72 251.32-16.16Q249.68-17.60 247.24-17.60L247.24-17.60Z M282.44 0L282.44-23.60L273.16-23.60L273.16-28L296.92-28L296.92-23.60L287.64-23.60L287.64 0L282.44 0Z M319.44-10.56Q319.44-10.04 319.36-9.08L319.36-9.08L302.60-9.08Q303.04-6.72 304.90-5.34Q306.76-3.96 309.52-3.96L309.52-3.96Q313.04-3.96 315.32-6.28L315.32-6.28L318-3.20Q316.56-1.48 314.36-0.60Q312.16 0.28 309.40 0.28L309.40 0.28Q305.88 0.28 303.20-1.12Q300.52-2.52 299.06-5.02Q297.60-7.52 297.60-10.68L297.60-10.68Q297.60-13.80 299.02-16.30Q300.44-18.80 302.96-20.20Q305.48-21.60 308.64-21.60L308.64-21.60Q311.76-21.60 314.22-20.22Q316.68-18.84 318.06-16.34Q319.44-13.84 319.44-10.56L319.44-10.56ZM308.64-17.60Q306.24-17.60 304.58-16.18Q302.92-14.76 302.56-12.40L302.56-12.40L314.68-12.40Q314.36-14.72 312.72-16.16Q311.08-17.60 308.64-17.60L308.64-17.60Z M335.24 0.28Q331.92 0.28 329.28-1.12Q326.64-2.52 325.16-5.02Q323.68-7.52 323.68-10.68L323.68-10.68Q323.68-13.84 325.16-16.32Q326.64-18.80 329.26-20.20Q331.88-21.60 335.24-21.60L335.24-21.60Q338.40-21.60 340.78-20.32Q343.16-19.04 344.36-16.64L344.36-16.64L340.52-14.40Q339.60-15.88 338.22-16.62Q336.84-17.36 335.20-17.36L335.20-17.36Q332.40-17.36 330.56-15.54Q328.72-13.72 328.72-10.68L328.72-10.68Q328.72-7.64 330.54-5.82Q332.36-4 335.20-4L335.20-4Q336.84-4 338.22-4.74Q339.60-5.48 340.52-6.96L340.52-6.96L344.36-4.72Q343.12-2.32 340.74-1.02Q338.36 0.28 335.24 0.28L335.24 0.28Z M361.80-21.60Q365.84-21.60 368.28-19.24Q370.72-16.88 370.72-12.24L370.72-12.24L370.72 0L365.72 0L365.72-11.60Q365.72-14.40 364.40-15.82Q363.08-17.24 360.64-17.24L360.64-17.24Q357.88-17.24 356.28-15.58Q354.68-13.92 354.68-10.80L354.68-10.80L354.68 0L349.68 0L349.68-29.68L354.68-29.68L354.68-18.88Q355.92-20.20 357.74-20.90Q359.56-21.60 361.80-21.60L361.80-21.60Z M411.40-28L416.60-28L404.40 0L399.28 0L387.04-28L392.68-28L402.00-6.40L411.40-28Z M420.48 0L420.48-21.36L425.48-21.36L425.48 0L420.48 0ZM423-24.88Q421.64-24.88 420.72-25.74Q419.80-26.60 419.80-27.88L419.80-27.88Q419.80-29.16 420.72-30.02Q421.64-30.88 423-30.88L423-30.88Q424.36-30.88 425.28-30.06Q426.20-29.24 426.20-28L426.20-28Q426.20-26.68 425.30-25.78Q424.40-24.88 423-24.88L423-24.88Z M445.08-21.60Q448.20-21.60 450.66-20.24Q453.12-18.88 454.52-16.40Q455.92-13.92 455.92-10.68L455.92-10.68Q455.92-7.44 454.52-4.94Q453.12-2.44 450.66-1.08Q448.20 0.28 445.08 0.28L445.08 0.28Q442.88 0.28 441.06-0.48Q439.24-1.24 438-2.76L438-2.76L438 0L433.24 0L433.24-29.68L438.24-29.68L438.24-18.76Q439.52-20.16 441.26-20.88Q443-21.60 445.08-21.60L445.08-21.60ZM444.52-4Q447.28-4 449.06-5.84Q450.84-7.68 450.84-10.68L450.84-10.68Q450.84-13.68 449.06-15.52Q447.28-17.36 444.52-17.36L444.52-17.36Q442.72-17.36 441.28-16.54Q439.84-15.72 439-14.20Q438.16-12.68 438.16-10.68L438.16-10.68Q438.16-8.68 439-7.16Q439.84-5.64 441.28-4.82Q442.72-4 444.52-4L444.52-4Z M481.96-10.56Q481.96-10.04 481.88-9.08L481.88-9.08L465.12-9.08Q465.56-6.72 467.42-5.34Q469.28-3.96 472.04-3.96L472.04-3.96Q475.56-3.96 477.84-6.28L477.84-6.28L480.52-3.20Q479.08-1.48 476.88-0.60Q474.68 0.28 471.92 0.28L471.92 0.28Q468.40 0.28 465.72-1.12Q463.04-2.52 461.58-5.02Q460.12-7.52 460.12-10.68L460.12-10.68Q460.12-13.80 461.54-16.30Q462.96-18.80 465.48-20.20Q468.00-21.60 471.16-21.60L471.16-21.60Q474.28-21.60 476.74-20.22Q479.20-18.84 480.58-16.34Q481.96-13.84 481.96-10.56L481.96-10.56ZM471.16-17.60Q468.76-17.60 467.10-16.18Q465.44-14.76 465.08-12.40L465.08-12.40L477.20-12.40Q476.88-14.72 475.24-16.16Q473.60-17.60 471.16-17.60L471.16-17.60Z M489.56 0.28Q488.20 0.28 487.24-0.66Q486.28-1.60 486.28-3.04L486.28-3.04Q486.28-4.52 487.22-5.44Q488.16-6.36 489.56-6.36L489.56-6.36Q490.96-6.36 491.90-5.44Q492.84-4.52 492.84-3.04L492.84-3.04Q492.84-1.60 491.88-0.66Q490.92 0.28 489.56 0.28L489.56 0.28Z"/></g>
</svg>
</g><g opacity="1" transform="rotate(0 329.2905 211.9487)">
<svg width="398.5958" height="60" x="329.2905" y="211.9487" version="1.1" preserveAspectRatio="none" viewBox="0.8 -28.48 192.39999999999998 28.96">
  <g transform="matrix(1 0 0 1 0 0)" class="companyName"><path id="id-D6z1nYkh9" d="M11.52 0L15.16 0L15.16-25.80L25.88-25.80L25.88-28L0.80-28L0.80-25.80L11.52-25.80L11.52 0Z M25.64-9.12L40.84-9.12L40.84-9.96Q40.84-12.64 40.08-14.60Q39.32-16.56 38.02-17.84Q36.72-19.12 35-19.76Q33.28-20.40 31.36-20.40L31.36-20.40Q29.32-20.40 27.60-19.70Q25.88-19 24.60-17.66Q23.32-16.32 22.60-14.42Q21.88-12.52 21.88-10.12L21.88-10.12Q21.88-8.12 22.50-6.22Q23.12-4.32 24.38-2.82Q25.64-1.32 27.58-0.42Q29.52 0.48 32.16 0.48L32.16 0.48Q34.72 0.48 36.88-0.42Q39.04-1.32 40.64-3L40.64-3L39.36-4.28Q38.52-3.56 37.78-2.96Q37.04-2.36 36.28-1.96Q35.52-1.56 34.70-1.34Q33.88-1.12 32.88-1.12L32.88-1.12Q31.76-1.12 30.50-1.46Q29.24-1.80 28.16-2.68Q27.08-3.56 26.36-5.12Q25.64-6.68 25.64-9.12L25.64-9.12ZM37.36-10.72L25.64-10.72Q25.64-12.32 25.98-13.82Q26.32-15.32 27.02-16.48Q27.72-17.64 28.80-18.34Q29.88-19.04 31.36-19.04L31.36-19.04Q34.20-19.04 35.78-16.82Q37.36-14.60 37.36-10.72L37.36-10.72Z M56.08-1.60L56.08-1.60Q54.64-1.60 53.30-2.04Q51.96-2.48 50.92-3.46Q49.88-4.44 49.26-6.06Q48.64-7.68 48.64-10.04L48.64-10.04Q48.64-12.48 49.32-14.18Q50-15.88 51.02-16.90Q52.04-17.92 53.28-18.38Q54.52-18.84 55.64-18.84L55.64-18.84Q57.48-18.84 58.84-17.88Q60.20-16.92 60.64-15.52L60.64-15.52L63.40-15.52Q63-16.96 62.12-17.90Q61.24-18.84 60.10-19.42Q58.96-20 57.66-20.22Q56.36-20.44 55.16-20.44L55.16-20.44Q52.64-20.44 50.72-19.62Q48.80-18.80 47.48-17.40Q46.16-16 45.50-14.12Q44.84-12.24 44.84-10.12L44.84-10.12Q44.84-7.88 45.56-5.94Q46.28-4 47.62-2.58Q48.96-1.16 50.84-0.34Q52.72 0.48 55.08 0.48L55.08 0.48Q57.72 0.48 59.70-0.40Q61.68-1.28 63.04-2.32L63.04-2.32L61.88-3.84Q60.48-2.68 59.10-2.14Q57.72-1.60 56.08-1.60Z M71.20-28L67.80-28L67.80 0L71.20 0L71.20-11.56Q71.20-12.36 71.32-13.52Q71.44-14.68 71.98-15.76Q72.52-16.84 73.60-17.62Q74.68-18.40 76.60-18.40L76.60-18.40Q77.96-18.40 78.78-17.90Q79.60-17.40 80.04-16.56Q80.48-15.72 80.62-14.60Q80.76-13.48 80.76-12.28L80.76-12.28L80.76 0L84.16 0L84.16-13.20Q84.16-15.44 83.52-16.86Q82.88-18.28 81.92-19.08Q80.96-19.88 79.82-20.16Q78.68-20.44 77.64-20.44L77.64-20.44Q76.24-20.44 74.70-19.90Q73.16-19.36 71.80-17.84L71.80-17.84L71.36-17.28L71.20-17.28L71.20-28Z M91.56-7.08L88.84-7.08Q88.92-5.36 89.74-3.96Q90.56-2.56 91.98-1.58Q93.40-0.60 95.32-0.06Q97.24 0.48 99.52 0.48L99.52 0.48Q101.84 0.48 103.70-0.08Q105.56-0.64 106.88-1.68Q108.20-2.72 108.92-4.20Q109.64-5.68 109.64-7.48L109.64-7.48Q109.64-9.96 108.40-11.54Q107.16-13.12 105.30-14.18Q103.44-15.24 101.26-15.96Q99.08-16.68 97.22-17.48Q95.36-18.28 94.12-19.32Q92.88-20.36 92.88-22.08L92.88-22.08Q92.88-23.04 93.30-23.88Q93.72-24.72 94.54-25.34Q95.36-25.96 96.56-26.34Q97.76-26.72 99.32-26.72L99.32-26.72Q101.92-26.72 103.74-25.62Q105.56-24.52 105.88-22.16L105.88-22.16L108.60-22.16Q108.36-23.64 107.52-24.82Q106.68-26 105.40-26.82Q104.12-27.64 102.50-28.06Q100.88-28.48 99.12-28.48L99.12-28.48Q97.28-28.48 95.62-28Q93.96-27.52 92.70-26.60Q91.44-25.68 90.70-24.28Q89.96-22.88 89.96-21.08L89.96-21.08Q89.96-18.72 91.16-17.28Q92.36-15.84 94.18-14.88Q96.00-13.92 98.12-13.24Q100.24-12.56 102.06-11.70Q103.88-10.84 105.08-9.60Q106.28-8.36 106.28-6.28L106.28-6.28Q106.28-3.68 104.38-2.48Q102.48-1.28 99.32-1.28L99.32-1.28Q96.80-1.28 95.28-1.94Q93.76-2.60 92.96-3.52Q92.16-4.44 91.88-5.42Q91.60-6.40 91.56-7.08L91.56-7.08Z M135.08-9.96L135.08-9.96Q135.08-7.88 134.36-5.98Q133.64-4.08 132.30-2.64Q130.96-1.20 129.06-0.36Q127.16 0.48 124.80 0.48L124.80 0.48Q122.40 0.48 120.46-0.38Q118.52-1.24 117.18-2.68Q115.84-4.12 115.10-6.02Q114.36-7.92 114.36-9.96L114.36-9.96Q114.36-12.04 115.10-13.94Q115.84-15.84 117.18-17.28Q118.52-18.72 120.46-19.58Q122.40-20.44 124.80-20.44L124.80-20.44Q127.16-20.44 129.06-19.58Q130.96-18.72 132.30-17.28Q133.64-15.84 134.36-13.94Q135.08-12.04 135.08-9.96ZM131.28-9.96L131.28-9.96Q131.28-12.76 130.68-14.50Q130.08-16.24 129.12-17.20Q128.16-18.16 127.00-18.50Q125.84-18.84 124.76-18.84L124.76-18.84Q123.68-18.84 122.52-18.50Q121.36-18.16 120.38-17.20Q119.40-16.24 118.78-14.50Q118.16-12.76 118.16-9.96L118.16-9.96Q118.16-7.20 118.78-5.46Q119.40-3.72 120.38-2.76Q121.36-1.80 122.52-1.46Q123.68-1.12 124.76-1.12L124.76-1.12Q125.84-1.12 127.00-1.46Q128.16-1.80 129.12-2.76Q130.08-3.72 130.68-5.46Q131.28-7.20 131.28-9.96Z M153.60 0L157 0L157-12.96Q157-13.68 156.88-14.94Q156.76-16.20 156.10-17.42Q155.44-18.64 154-19.54Q152.56-20.44 149.92-20.44L149.92-20.44Q148.76-20.48 147.32-19.98Q145.88-19.48 144.48-18.08L144.48-18.08L143.84-17.44L143.68-17.44L143.68-20L140.28-20L140.28 0L143.68 0L143.68-12.36Q143.68-13.92 144.12-15.04Q144.56-16.16 145.32-16.92Q146.08-17.68 147.06-18.04Q148.04-18.40 149.08-18.40L149.08-18.40Q150.76-18.40 151.68-17.74Q152.60-17.08 153.02-16.20Q153.44-15.32 153.52-14.44Q153.60-13.56 153.60-13.16L153.60-13.16L153.60 0Z M168.20-20L164.80-20L164.80 0L168.20 0L168.20-20ZM164.32-26.32L164.32-26.32Q164.32-25.44 164.96-24.80Q165.60-24.16 166.48-24.16L166.48-24.16Q167.36-24.16 168.00-24.80Q168.64-25.44 168.64-26.32L168.64-26.32Q168.64-27.20 168.00-27.84Q167.36-28.48 166.48-28.48L166.48-28.48Q165.60-28.48 164.96-27.84Q164.32-27.20 164.32-26.32Z M185.88-1.60L185.88-1.60Q184.44-1.60 183.10-2.04Q181.76-2.48 180.72-3.46Q179.68-4.44 179.06-6.06Q178.44-7.68 178.44-10.04L178.44-10.04Q178.44-12.48 179.12-14.18Q179.80-15.88 180.82-16.90Q181.84-17.92 183.08-18.38Q184.32-18.84 185.44-18.84L185.44-18.84Q187.28-18.84 188.64-17.88Q190-16.92 190.44-15.52L190.44-15.52L193.20-15.52Q192.80-16.96 191.92-17.90Q191.04-18.84 189.90-19.42Q188.76-20 187.46-20.22Q186.16-20.44 184.96-20.44L184.96-20.44Q182.44-20.44 180.52-19.62Q178.60-18.80 177.28-17.40Q175.96-16 175.30-14.12Q174.64-12.24 174.64-10.12L174.64-10.12Q174.64-7.88 175.36-5.94Q176.08-4 177.42-2.58Q178.76-1.16 180.64-0.34Q182.52 0.48 184.88 0.48L184.88 0.48Q187.52 0.48 189.50-0.40Q191.48-1.28 192.84-2.32L192.84-2.32L191.68-3.84Q190.28-2.68 188.90-2.14Q187.52-1.60 185.88-1.60Z"/></g>
</svg>
</g><g opacity="1" transform="rotate(0 309.2905 196.9487)">
<svg width="2" height="122.4" x="309.2905" y="196.9487" version="1.1" preserveAspectRatio="none" viewBox="0 0 2 122.4">
  <defs><rect x="0" y="0" width="2" height="122.4" rx="0px" ry="0px" id="id-tBXipXk0b1705425253222"></rect></defs><use class="companyName shapeStroke-str" style="stroke-width:0;" xlink:href="#id-tBXipXk0b1705425253222"></use>
</svg>
</g></svg></svg>